<mxfile host="app.diagrams.net" modified="2022-08-05T07:25:14.778Z" agent="5.0 (Windows NT 10.0; Win64; x64) AppleWebKit/537.36 (KHTML, like Gecko) Chrome/103.0.0.0 Safari/537.36" etag="G1_Q206z0qoXpjPghDuW" version="20.2.3" type="github">
  <diagram id="QM1sI1y3XJMxXpgxtU6h" name="Trang-1">
    <mxGraphModel dx="1422" dy="804" grid="1" gridSize="10" guides="1" tooltips="1" connect="1" arrows="1" fold="1" page="1" pageScale="1" pageWidth="827" pageHeight="1169" math="0" shadow="0">
      <root>
        <mxCell id="0" />
        <mxCell id="1" parent="0" />
        <mxCell id="oQhcC25E2-OrqsgXdS6h-1" value="UI Screen" style="rounded=0;whiteSpace=wrap;html=1;fontSize=18;" vertex="1" parent="1">
          <mxGeometry x="90" y="90" width="120" height="60" as="geometry" />
        </mxCell>
        <mxCell id="oQhcC25E2-OrqsgXdS6h-2" value="&lt;div style=&quot;text-align: justify;&quot;&gt;&lt;span style=&quot;font-size: 28px; background-color: initial;&quot;&gt;&lt;b&gt;BLOC pattern for Flutter&lt;/b&gt;&lt;/span&gt;&lt;/div&gt;" style="text;html=1;strokeColor=none;fillColor=none;align=center;verticalAlign=middle;whiteSpace=wrap;rounded=0;strokeWidth=1;" vertex="1" parent="1">
          <mxGeometry x="249" y="30" width="329" height="30" as="geometry" />
        </mxCell>
        <mxCell id="oQhcC25E2-OrqsgXdS6h-3" value="BLOC" style="rounded=0;whiteSpace=wrap;html=1;fontSize=18;" vertex="1" parent="1">
          <mxGeometry x="90" y="210" width="120" height="60" as="geometry" />
        </mxCell>
        <mxCell id="oQhcC25E2-OrqsgXdS6h-4" value="Repository" style="rounded=0;whiteSpace=wrap;html=1;fontSize=18;" vertex="1" parent="1">
          <mxGeometry x="90" y="330" width="120" height="60" as="geometry" />
        </mxCell>
        <mxCell id="oQhcC25E2-OrqsgXdS6h-5" value="Network Provider" style="rounded=0;whiteSpace=wrap;html=1;fontSize=18;" vertex="1" parent="1">
          <mxGeometry x="90" y="450" width="120" height="60" as="geometry" />
        </mxCell>
        <mxCell id="oQhcC25E2-OrqsgXdS6h-6" value="" style="endArrow=classic;html=1;rounded=0;fontSize=18;exitX=0.75;exitY=1;exitDx=0;exitDy=0;entryX=0.75;entryY=0;entryDx=0;entryDy=0;" edge="1" parent="1" source="oQhcC25E2-OrqsgXdS6h-4" target="oQhcC25E2-OrqsgXdS6h-5">
          <mxGeometry width="50" height="50" relative="1" as="geometry">
            <mxPoint x="390" y="450" as="sourcePoint" />
            <mxPoint x="220" y="430" as="targetPoint" />
          </mxGeometry>
        </mxCell>
        <mxCell id="oQhcC25E2-OrqsgXdS6h-8" value="" style="endArrow=classic;html=1;rounded=0;fontSize=18;exitX=0.75;exitY=1;exitDx=0;exitDy=0;entryX=0.75;entryY=0;entryDx=0;entryDy=0;" edge="1" parent="1" source="oQhcC25E2-OrqsgXdS6h-3" target="oQhcC25E2-OrqsgXdS6h-4">
          <mxGeometry width="50" height="50" relative="1" as="geometry">
            <mxPoint x="180" y="270" as="sourcePoint" />
            <mxPoint x="180" y="330" as="targetPoint" />
          </mxGeometry>
        </mxCell>
        <mxCell id="oQhcC25E2-OrqsgXdS6h-9" value="" style="endArrow=classic;html=1;rounded=0;fontSize=18;exitX=0.75;exitY=1;exitDx=0;exitDy=0;entryX=0.75;entryY=0;entryDx=0;entryDy=0;" edge="1" parent="1" source="oQhcC25E2-OrqsgXdS6h-1" target="oQhcC25E2-OrqsgXdS6h-3">
          <mxGeometry width="50" height="50" relative="1" as="geometry">
            <mxPoint x="200" y="410" as="sourcePoint" />
            <mxPoint x="200" y="470" as="targetPoint" />
          </mxGeometry>
        </mxCell>
        <mxCell id="oQhcC25E2-OrqsgXdS6h-10" value="" style="endArrow=classic;html=1;rounded=0;fontSize=18;exitX=0.25;exitY=0;exitDx=0;exitDy=0;entryX=0.25;entryY=1;entryDx=0;entryDy=0;" edge="1" parent="1" source="oQhcC25E2-OrqsgXdS6h-5" target="oQhcC25E2-OrqsgXdS6h-4">
          <mxGeometry width="50" height="50" relative="1" as="geometry">
            <mxPoint x="210" y="420" as="sourcePoint" />
            <mxPoint x="210" y="480" as="targetPoint" />
          </mxGeometry>
        </mxCell>
        <mxCell id="oQhcC25E2-OrqsgXdS6h-11" value="" style="endArrow=classic;html=1;rounded=0;fontSize=18;exitX=0.25;exitY=0;exitDx=0;exitDy=0;entryX=0.25;entryY=1;entryDx=0;entryDy=0;" edge="1" parent="1" source="oQhcC25E2-OrqsgXdS6h-4" target="oQhcC25E2-OrqsgXdS6h-3">
          <mxGeometry width="50" height="50" relative="1" as="geometry">
            <mxPoint x="130" y="460" as="sourcePoint" />
            <mxPoint x="130" y="400" as="targetPoint" />
          </mxGeometry>
        </mxCell>
        <mxCell id="oQhcC25E2-OrqsgXdS6h-12" value="" style="endArrow=classic;html=1;rounded=0;fontSize=18;exitX=0.25;exitY=0;exitDx=0;exitDy=0;entryX=0.25;entryY=1;entryDx=0;entryDy=0;" edge="1" parent="1" source="oQhcC25E2-OrqsgXdS6h-3" target="oQhcC25E2-OrqsgXdS6h-1">
          <mxGeometry width="50" height="50" relative="1" as="geometry">
            <mxPoint x="140" y="470" as="sourcePoint" />
            <mxPoint x="140" y="410" as="targetPoint" />
          </mxGeometry>
        </mxCell>
        <mxCell id="oQhcC25E2-OrqsgXdS6h-13" value="" style="endArrow=classic;html=1;rounded=0;fontSize=18;exitX=0.25;exitY=0;exitDx=0;exitDy=0;" edge="1" parent="1">
          <mxGeometry width="50" height="50" relative="1" as="geometry">
            <mxPoint x="280" y="120" as="sourcePoint" />
            <mxPoint x="360" y="120" as="targetPoint" />
          </mxGeometry>
        </mxCell>
        <mxCell id="oQhcC25E2-OrqsgXdS6h-14" value="" style="endArrow=classic;html=1;rounded=0;fontSize=18;exitX=0.25;exitY=0;exitDx=0;exitDy=0;" edge="1" parent="1">
          <mxGeometry width="50" height="50" relative="1" as="geometry">
            <mxPoint x="280" y="240" as="sourcePoint" />
            <mxPoint x="360" y="240" as="targetPoint" />
          </mxGeometry>
        </mxCell>
        <mxCell id="oQhcC25E2-OrqsgXdS6h-15" value="" style="endArrow=classic;html=1;rounded=0;fontSize=18;exitX=0.25;exitY=0;exitDx=0;exitDy=0;" edge="1" parent="1">
          <mxGeometry width="50" height="50" relative="1" as="geometry">
            <mxPoint x="280" y="360" as="sourcePoint" />
            <mxPoint x="360" y="360" as="targetPoint" />
          </mxGeometry>
        </mxCell>
        <mxCell id="oQhcC25E2-OrqsgXdS6h-16" value="" style="endArrow=classic;html=1;rounded=0;fontSize=18;exitX=0.25;exitY=0;exitDx=0;exitDy=0;" edge="1" parent="1">
          <mxGeometry width="50" height="50" relative="1" as="geometry">
            <mxPoint x="280" y="480" as="sourcePoint" />
            <mxPoint x="360" y="480" as="targetPoint" />
          </mxGeometry>
        </mxCell>
        <mxCell id="oQhcC25E2-OrqsgXdS6h-17" value="" style="shape=image;verticalLabelPosition=bottom;labelBackgroundColor=default;verticalAlign=middle;aspect=fixed;imageAspect=0;image=https://images.viblo.asia/e7a2077c-558b-4ba4-83c5-207927b2dd7c.png;align=center;" vertex="1" parent="1">
          <mxGeometry x="45" y="30" width="737.82" height="850.71" as="geometry" />
        </mxCell>
      </root>
    </mxGraphModel>
  </diagram>
</mxfile>
